<svg width="123" height="57" viewBox="0 0 123 57" fill="none" xmlns="http://www.w3.org/2000/svg">
<path d="M40.048 47.1372H37.3075V32.4582H34.756V30.2847H37.3075V28.4892C37.3075 25.8117 38.5045 24.6462 41.4655 24.6462H43.576V26.8197H41.749C40.489 26.8197 40.048 27.2922 40.048 28.4892V30.2847H49.057V47.1372H46.285V32.4582H40.048V47.1372ZM46.1905 27.7647V24.6462H49.2145V27.7647H46.1905ZM52.1664 32.8677L52.1034 30.2847H54.8754L54.9384 32.9307H55.0329C55.6629 31.4817 57.5844 29.9067 60.4509 29.9067C64.1679 29.9067 66.4989 32.2377 66.4989 36.0177V47.1372H63.7269V36.3327C63.7269 33.7182 62.3409 32.0802 59.7579 32.0802C56.8284 32.0802 54.9384 34.2852 54.9384 37.4037V47.1372H52.1664V32.8677ZM69.2315 47.1372V24.6462H72.0035V47.1372H69.2315ZM81.5628 32.0802C79.2003 32.0802 77.5938 32.9937 77.3733 34.9152H74.6013C74.7588 31.4817 77.4363 29.9067 81.5628 29.9067C86.3508 29.9067 88.4928 31.9857 88.4928 35.5137V43.1682C88.4928 44.9637 88.4928 45.3732 88.6503 47.1372H85.8783C85.7523 45.8142 85.7208 45.3417 85.7208 44.3337H85.6263C84.7758 45.8772 82.8228 47.5152 79.5468 47.5152C76.2393 47.5152 73.9713 45.6252 73.9713 42.3177C73.9713 38.8212 76.5543 37.3407 80.0823 36.8997L85.7208 36.1752V35.5137C85.7208 33.0882 84.2088 32.0802 81.5628 32.0802ZM76.7433 42.3177C76.7433 44.2077 78.0663 45.3417 80.2398 45.3417C82.5078 45.3417 85.8153 43.6092 85.8153 39.3252V38.2857L80.5548 38.9787C78.0663 39.2937 76.7433 40.3962 76.7433 42.3177ZM107.274 38.6952C107.274 44.2707 103.904 47.5152 99.4309 47.5152C96.7849 47.5152 94.9264 46.0977 94.2964 44.6172H94.2649L94.1704 47.1372H91.3984L91.4929 43.0422V24.6462H94.2649V32.5212H94.2964C95.1154 31.2612 97.1629 29.9067 99.6514 29.9067C103.778 29.9067 107.274 32.8047 107.274 38.6952ZM93.9814 38.6952C93.9814 42.5697 95.9029 45.3417 99.2104 45.3417C102.518 45.3417 104.502 42.5697 104.502 38.6952C104.502 34.8207 102.518 32.0802 99.2104 32.0802C95.9029 32.0802 93.9814 34.8207 93.9814 38.6952ZM108.671 30.2847H121.429V32.7102L110.813 44.9637H121.555V47.1372H107.915V44.4597L118.342 32.4582H108.671V30.2847Z" fill="white"/>
<path d="M1 17.4939L58.8239 2L39.5 17.4939L90.25 3.47177" stroke="white" stroke-width="3"/>
</svg>
